<svg width="20" height="16" fill="none" xmlns="http://www.w3.org/2000/svg"><g clip-path="url(#clip0_1_1243)"><path d="M6.027 3.367c-.3-1.015-1.114-.904-1.67-.43-1.37 1.265-3.156 3.923-2.013 7.75C3.3 13.926 7.28 16 7.28 16H2.64S.245 13.316.03 10.157c-.272-3.993 1.327-6.51 3.183-8.153C4.957.46 6.614.001 6.614.001L10 11.101l3.388-11.1s1.656.46 3.398 2.003c1.856 1.642 3.455 4.16 3.184 8.154C19.756 13.316 17.36 16 17.36 16h-4.64s3.98-2.073 4.937-5.315c1.142-3.826-.642-6.483-2.013-7.75-.557-.473-1.37-.584-1.67.431l-3.973 12.53-3.973-12.53h-.001z" fill="#fff"/></g><defs><clipPath id="clip0_1_1243"><path fill="#fff" d="M0 0h20v16H0z"/></clipPath></defs></svg>