<svg width="306" height="28" fill="none" xmlns="http://www.w3.org/2000/svg"><g filter="url(#filter0_d_1_1233)"><path d="M47.92 15.168c-.784 0-1.489-.145-2.114-.434-.625-.29-1.092-.658-1.4-1.106l.686-.742c.28.373.672.677 1.176.91a4.017 4.017 0 001.624.336c.728 0 1.302-.154 1.722-.462.42-.317.63-.747.63-1.288 0-.56-.22-.975-.658-1.246-.43-.27-1.017-.406-1.764-.406h-1.904V9.694h1.904c.663 0 1.204-.126 1.624-.378.43-.261.644-.649.644-1.162 0-.504-.215-.896-.644-1.176-.42-.28-.952-.42-1.596-.42-1.055 0-1.937.378-2.646 1.134l-.644-.728a4.08 4.08 0 011.428-1.036 4.598 4.598 0 011.946-.406c.952 0 1.745.224 2.38.672.644.448.966 1.055.966 1.82 0 .616-.21 1.11-.63 1.484a2.82 2.82 0 01-1.386.686c.513.047.999.27 1.456.672.467.401.7.943.7 1.624 0 .784-.322 1.428-.966 1.932-.644.504-1.489.756-2.534.756zM58.504 15h-1.05v-.77c-.57.625-1.316.938-2.24.938-.626 0-1.176-.2-1.652-.602-.476-.401-.714-.947-.714-1.638 0-.71.233-1.255.7-1.638a2.542 2.542 0 011.666-.588c.961 0 1.708.308 2.24.924v-1.218c0-.448-.159-.798-.476-1.05-.318-.252-.728-.378-1.232-.378-.794 0-1.484.313-2.072.938l-.49-.728c.718-.747 1.62-1.12 2.702-1.12.774 0 1.404.187 1.89.56.485.373.728.947.728 1.722V15zm-2.912-.588c.84 0 1.46-.28 1.862-.84v-1.274c-.402-.56-1.022-.84-1.862-.84-.486 0-.887.14-1.204.42-.308.27-.462.625-.462 1.064 0 .43.154.784.462 1.064.317.27.718.406 1.204.406zM66.237 15h-1.05V9.162h-3.528V15h-1.05V8.238h5.628V15zm3.104 0h-1.008V8.238h1.05v5.166l3.542-5.166h1.036V15h-1.05V9.736L69.341 15zm9.699.168c-.999 0-1.81-.336-2.436-1.008-.626-.681-.938-1.53-.938-2.548 0-1.017.313-1.862.938-2.534.625-.672 1.437-1.008 2.436-1.008 1.045 0 1.871.392 2.478 1.176l-.7.644c-.43-.588-1.004-.882-1.722-.882-.71 0-1.279.243-1.708.728-.42.485-.63 1.11-.63 1.876 0 .765.21 1.395.63 1.89.43.485.998.728 1.708.728s1.283-.294 1.722-.882l.7.644c-.607.784-1.433 1.176-2.478 1.176zm3.95-6.93h1.05v2.618h2.533c.673 0 1.195.2 1.569.602.373.392.56.882.56 1.47s-.192 1.083-.575 1.484c-.373.392-.89.588-1.553.588H82.99V8.238zm3.472 3.542H84.04v2.296h2.421c.374 0 .659-.103.855-.308.205-.215.308-.495.308-.84s-.103-.62-.308-.826c-.197-.215-.481-.322-.855-.322zM99.541 15h-1.05V9.162h-3.529V15h-1.05V8.238h5.628V15zm7.472-.854c-.607.681-1.414 1.022-2.422 1.022-1.008 0-1.82-.34-2.436-1.022-.607-.681-.91-1.526-.91-2.534 0-1.008.303-1.848.91-2.52.616-.681 1.428-1.022 2.436-1.022s1.815.34 2.422 1.022c.616.672.924 1.512.924 2.52s-.308 1.853-.924 2.534zm-4.074-.672c.411.504.961.756 1.652.756s1.237-.252 1.638-.756c.401-.513.602-1.134.602-1.862 0-.728-.201-1.344-.602-1.848-.401-.504-.947-.756-1.638-.756s-1.241.257-1.652.77c-.401.504-.602 1.115-.602 1.834 0 .728.201 1.349.602 1.862zm9.521 3.248v-2.59c.345-.065.616-.27.812-.616.196-.355.355-1.003.476-1.946l.434-3.332h4.704v5.838h.784v2.646h-1.05V15h-5.11v1.722h-1.05zm2.646-7.56l-.308 2.534c-.159 1.185-.485 1.979-.98 2.38h4.018V9.162h-2.73zm11.376 4.984c-.607.681-1.414 1.022-2.422 1.022-1.008 0-1.82-.34-2.436-1.022-.607-.681-.91-1.526-.91-2.534 0-1.008.303-1.848.91-2.52.616-.681 1.428-1.022 2.436-1.022s1.815.34 2.422 1.022c.616.672.924 1.512.924 2.52s-.308 1.853-.924 2.534zm-4.074-.672c.41.504.961.756 1.652.756.69 0 1.236-.252 1.638-.756.401-.513.602-1.134.602-1.862 0-.728-.201-1.344-.602-1.848-.402-.504-.948-.756-1.638-.756-.691 0-1.242.257-1.652.77-.402.504-.602 1.115-.602 1.834 0 .728.2 1.349.602 1.862zm11.441-5.236v.924h-3.682V15h-1.05V8.238h4.732zm6.742 5.908c-.607.681-1.414 1.022-2.422 1.022-1.008 0-1.82-.34-2.436-1.022-.607-.681-.91-1.526-.91-2.534 0-1.008.303-1.848.91-2.52.616-.681 1.428-1.022 2.436-1.022s1.815.34 2.422 1.022c.616.672.924 1.512.924 2.52s-.308 1.853-.924 2.534zm-4.074-.672c.411.504.961.756 1.652.756s1.237-.252 1.638-.756c.401-.513.602-1.134.602-1.862 0-.728-.201-1.344-.602-1.848-.401-.504-.947-.756-1.638-.756s-1.241.257-1.652.77c-.401.504-.602 1.115-.602 1.834 0 .728.201 1.349.602 1.862zM147.022 15h-3.794V8.238h3.724c.588 0 1.05.159 1.386.476.345.317.518.737.518 1.26 0 .383-.108.714-.322.994-.206.27-.462.453-.77.546.345.084.634.285.868.602.242.317.364.667.364 1.05 0 .55-.178.994-.532 1.33-.346.336-.826.504-1.442.504zm-.21-.924c.336 0 .602-.093.798-.28.196-.187.294-.439.294-.756 0-.29-.098-.537-.294-.742-.196-.205-.462-.308-.798-.308h-2.534v2.086h2.534zm-.042-3.01c.317 0 .564-.084.742-.252a.93.93 0 00.266-.686c0-.299-.089-.532-.266-.7-.178-.177-.425-.266-.742-.266h-2.492v1.904h2.492zm9.586 3.08c-.607.681-1.414 1.022-2.422 1.022-1.008 0-1.82-.34-2.436-1.022-.607-.681-.91-1.526-.91-2.534 0-1.008.303-1.848.91-2.52.616-.681 1.428-1.022 2.436-1.022s1.815.34 2.422 1.022c.616.672.924 1.512.924 2.52s-.308 1.853-.924 2.534zm-4.074-.672c.41.504.961.756 1.652.756.69 0 1.236-.252 1.638-.756.401-.513.602-1.134.602-1.862 0-.728-.201-1.344-.602-1.848-.402-.504-.948-.756-1.638-.756-.691 0-1.242.257-1.652.77-.402.504-.602 1.115-.602 1.834 0 .728.2 1.349.602 1.862zm10.041 1.694c-.952 0-1.712-.397-2.282-1.19v3.598h-1.05V8.238h1.05v1.008c.252-.355.579-.64.98-.854a2.722 2.722 0 011.302-.322c.896 0 1.62.322 2.17.966.56.635.84 1.493.84 2.576s-.28 1.946-.84 2.59c-.55.644-1.274.966-2.17.966zm-.266-.938c.663 0 1.19-.243 1.582-.728.392-.495.588-1.125.588-1.89 0-.765-.196-1.39-.588-1.876-.392-.485-.919-.728-1.582-.728-.401 0-.793.107-1.176.322-.373.205-.653.457-.84.756v3.052c.187.308.467.57.84.784.383.205.775.308 1.176.308zm7.998.938c-1.008 0-1.834-.327-2.478-.98-.644-.663-.966-1.521-.966-2.576 0-.99.317-1.825.952-2.506.635-.69 1.428-1.036 2.38-1.036.999 0 1.787.345 2.366 1.036.588.681.882 1.545.882 2.59v.266h-5.474c.047.663.289 1.218.728 1.666.439.448 1.008.672 1.708.672.84 0 1.535-.285 2.086-.854l.504.686c-.691.69-1.587 1.036-2.688 1.036zm2.1-3.976a2.416 2.416 0 00-.588-1.554c-.383-.467-.929-.7-1.638-.7-.672 0-1.204.229-1.596.686-.383.457-.588.98-.616 1.568h4.438zM175.942 15h-1.05V8.238h1.05v2.814h3.528V8.238h1.05V15h-1.05v-3.024h-3.528V15zm7.724 0h-1.05V8.238h1.05v2.814h3.528V8.238h1.05V15h-1.05v-3.024h-3.528V15zm12.051-.854c-.607.681-1.414 1.022-2.422 1.022-1.008 0-1.82-.34-2.436-1.022-.607-.681-.91-1.526-.91-2.534 0-1.008.303-1.848.91-2.52.616-.681 1.428-1.022 2.436-1.022s1.815.34 2.422 1.022c.616.672.924 1.512.924 2.52s-.308 1.853-.924 2.534zm-4.074-.672c.411.504.961.756 1.652.756s1.237-.252 1.638-.756c.401-.513.602-1.134.602-1.862 0-.728-.201-1.344-.602-1.848-.401-.504-.947-.756-1.638-.756s-1.241.257-1.652.77c-.401.504-.602 1.115-.602 1.834 0 .728.201 1.349.602 1.862zm9.692 1.694c-.999 0-1.811-.336-2.436-1.008-.626-.681-.938-1.53-.938-2.548 0-1.017.312-1.862.938-2.534.625-.672 1.437-1.008 2.436-1.008 1.045 0 1.871.392 2.478 1.176l-.7.644c-.43-.588-1.004-.882-1.722-.882-.71 0-1.279.243-1.708.728-.42.485-.63 1.11-.63 1.876 0 .765.21 1.395.63 1.89.429.485.998.728 1.708.728.709 0 1.283-.294 1.722-.882l.7.644c-.607.784-1.433 1.176-2.478 1.176zm6.231-.168h-1.05V9.162h-1.96v-.924h4.984v.924h-1.974V15zm4.359 0h-1.008V8.238h1.05v5.166l3.542-5.166h1.036V15h-1.05V9.736L211.925 15z" fill="#fff"/><g clip-path="url(#clip0_1_1233)"><path d="M9 .625a.625.625 0 00-1.25 0v.625H6.5A2.5 2.5 0 004 3.75V5h20V3.75a2.5 2.5 0 00-2.5-2.5h-1.25V.625a.625.625 0 10-1.25 0v.625H9V.625zM24 17.5V6.25H4V17.5A2.5 2.5 0 006.5 20h15a2.5 2.5 0 002.5-2.5zm-8.125-8.75h1.25a.625.625 0 01.625.625v1.25a.624.624 0 01-.625.625h-1.25a.624.624 0 01-.625-.625v-1.25a.625.625 0 01.625-.625zm3.75 0h1.25a.625.625 0 01.625.625v1.25a.624.624 0 01-.625.625h-1.25a.624.624 0 01-.625-.625v-1.25a.625.625 0 01.625-.625zM6.5 13.125a.625.625 0 01.625-.625h1.25a.625.625 0 01.625.625v1.25a.625.625 0 01-.625.625h-1.25a.625.625 0 01-.625-.625v-1.25zm4.375-.625h1.25a.624.624 0 01.625.625v1.25a.624.624 0 01-.625.625h-1.25a.624.624 0 01-.625-.625v-1.25a.624.624 0 01.625-.625z" fill="#fff"/></g></g><defs><clipPath id="clip0_1_1233"><path fill="#fff" transform="translate(4)" d="M0 0h20v20H0z"/></clipPath><filter id="filter0_d_1_1233" x="0" y="0" width="220.545" height="28" filterUnits="userSpaceOnUse" color-interpolation-filters="sRGB"><feFlood flood-opacity="0" result="BackgroundImageFix"/><feColorMatrix in="SourceAlpha" values="0 0 0 0 0 0 0 0 0 0 0 0 0 0 0 0 0 0 127 0" result="hardAlpha"/><feOffset dy="4"/><feGaussianBlur stdDeviation="2"/><feComposite in2="hardAlpha" operator="out"/><feColorMatrix values="0 0 0 0 0 0 0 0 0 0 0 0 0 0 0 0 0 0 0.25 0"/><feBlend in2="BackgroundImageFix" result="effect1_dropShadow_1_1233"/><feBlend in="SourceGraphic" in2="effect1_dropShadow_1_1233" result="shape"/></filter></defs></svg>