<svg width="20" height="16" viewBox="0 0 20 16" fill="none" xmlns="http://www.w3.org/2000/svg">
<g clip-path="url(#clip0_1_1243)">
<path d="M6.02671 3.36744C5.7269 2.35176 4.91311 2.46308 4.35671 2.93614C2.98608 4.20221 1.20142 6.85964 2.34361 10.6861C3.30019 13.9279 7.28051 16.001 7.28051 16.001H2.64052C2.64052 16.001 0.244689 13.3157 0.0305166 10.1575C-0.240743 6.16446 1.35845 3.64615 3.2145 2.00446C4.95633 0.460092 6.61251 0.000976562 6.61251 0.000976562L10.0003 11.101L13.3882 0.000976562C13.3882 0.000976562 15.0443 0.460093 16.7862 2.00446C18.6422 3.64615 20.2414 6.16446 19.9702 10.1575C19.756 13.3157 17.3602 16.001 17.3602 16.001H12.7202C12.7202 16.001 16.7002 13.9279 17.6571 10.6861C18.7993 6.86007 17.0146 4.20265 15.644 2.93614C15.0871 2.46308 14.2734 2.35176 13.974 3.36744C12.946 6.60918 10.0008 15.8974 10.0008 15.8974C10.0008 15.8974 7.05552 6.60608 6.02755 3.36744H6.02671Z" fill="white"/>
</g>
<defs>
<clipPath id="clip0_1_1243">
<rect width="20" height="16" fill="white"/>
</clipPath>
</defs>
</svg>
