<svg width="306" height="28" viewBox="0 0 306 28" fill="none" xmlns="http://www.w3.org/2000/svg">
<g filter="url(#filter0_d_1_1233)">
<path d="M47.92 15.168C47.136 15.168 46.4313 15.0233 45.806 14.734C45.1807 14.4447 44.714 14.076 44.406 13.628L45.092 12.886C45.372 13.2593 45.764 13.5627 46.268 13.796C46.7813 14.02 47.3227 14.132 47.892 14.132C48.62 14.132 49.194 13.978 49.614 13.67C50.034 13.3527 50.244 12.9233 50.244 12.382C50.244 11.822 50.0247 11.4067 49.586 11.136C49.1567 10.8653 48.5687 10.73 47.822 10.73H45.918V9.694H47.822C48.4847 9.694 49.026 9.568 49.446 9.316C49.8753 9.05467 50.09 8.66733 50.09 8.154C50.09 7.65 49.8753 7.258 49.446 6.978C49.026 6.698 48.494 6.558 47.85 6.558C46.7953 6.558 45.9133 6.936 45.204 7.692L44.56 6.964C44.9333 6.53467 45.4093 6.18933 45.988 5.928C46.576 5.65733 47.2247 5.522 47.934 5.522C48.886 5.522 49.6793 5.746 50.314 6.194C50.958 6.642 51.28 7.24867 51.28 8.014C51.28 8.63 51.07 9.12467 50.65 9.498C50.2393 9.862 49.7773 10.0907 49.264 10.184C49.7773 10.2307 50.2627 10.4547 50.72 10.856C51.1867 11.2573 51.42 11.7987 51.42 12.48C51.42 13.264 51.098 13.908 50.454 14.412C49.81 14.916 48.9653 15.168 47.92 15.168ZM58.5038 15H57.4538V14.23C56.8844 14.8553 56.1378 15.168 55.2138 15.168C54.5884 15.168 54.0378 14.9673 53.5618 14.566C53.0858 14.1647 52.8478 13.6187 52.8478 12.928C52.8478 12.2187 53.0811 11.6727 53.5478 11.29C54.0238 10.898 54.5791 10.702 55.2138 10.702C56.1751 10.702 56.9218 11.01 57.4538 11.626V10.408C57.4538 9.96 57.2951 9.61 56.9778 9.358C56.6604 9.106 56.2498 8.98 55.7458 8.98C54.9524 8.98 54.2618 9.29267 53.6738 9.918L53.1838 9.19C53.9024 8.44333 54.8031 8.07 55.8858 8.07C56.6604 8.07 57.2904 8.25667 57.7758 8.63C58.2611 9.00333 58.5038 9.57733 58.5038 10.352V15ZM55.5918 14.412C56.4318 14.412 57.0524 14.132 57.4538 13.572V12.298C57.0524 11.738 56.4318 11.458 55.5918 11.458C55.1064 11.458 54.7051 11.598 54.3878 11.878C54.0798 12.1487 53.9258 12.5033 53.9258 12.942C53.9258 13.3713 54.0798 13.726 54.3878 14.006C54.7051 14.2767 55.1064 14.412 55.5918 14.412ZM66.2366 15H65.1866V9.162H61.6586V15H60.6086V8.238H66.2366V15ZM69.3412 15H68.3332V8.238H69.3832V13.404L72.9252 8.238H73.9612V15H72.9112V9.736L69.3412 15ZM79.0398 15.168C78.0411 15.168 77.2291 14.832 76.6038 14.16C75.9785 13.4787 75.6658 12.6293 75.6658 11.612C75.6658 10.5947 75.9785 9.75 76.6038 9.078C77.2291 8.406 78.0411 8.07 79.0398 8.07C80.0851 8.07 80.9111 8.462 81.5178 9.246L80.8178 9.89C80.3885 9.302 79.8145 9.008 79.0958 9.008C78.3865 9.008 77.8171 9.25067 77.3878 9.736C76.9678 10.2213 76.7578 10.8467 76.7578 11.612C76.7578 12.3773 76.9678 13.0073 77.3878 13.502C77.8171 13.9873 78.3865 14.23 79.0958 14.23C79.8051 14.23 80.3791 13.936 80.8178 13.348L81.5178 13.992C80.9111 14.776 80.0851 15.168 79.0398 15.168ZM82.9895 8.238H84.0395V10.856H86.5735C87.2455 10.856 87.7681 11.0567 88.1415 11.458C88.5148 11.85 88.7015 12.34 88.7015 12.928C88.7015 13.516 88.5101 14.0107 88.1275 14.412C87.7541 14.804 87.2361 15 86.5735 15H82.9895V8.238ZM86.4615 11.78H84.0395V14.076H86.4615C86.8348 14.076 87.1195 13.9733 87.3155 13.768C87.5208 13.5533 87.6235 13.2733 87.6235 12.928C87.6235 12.5827 87.5208 12.3073 87.3155 12.102C87.1195 11.8873 86.8348 11.78 86.4615 11.78ZM99.5413 15H98.4913V9.162H94.9633V15H93.9133V8.238H99.5413V15ZM107.014 14.146C106.407 14.8273 105.6 15.168 104.592 15.168C103.584 15.168 102.772 14.8273 102.156 14.146C101.549 13.4647 101.246 12.62 101.246 11.612C101.246 10.604 101.549 9.764 102.156 9.092C102.772 8.41067 103.584 8.07 104.592 8.07C105.6 8.07 106.407 8.41067 107.014 9.092C107.63 9.764 107.938 10.604 107.938 11.612C107.938 12.62 107.63 13.4647 107.014 14.146ZM102.94 13.474C103.351 13.978 103.901 14.23 104.592 14.23C105.283 14.23 105.829 13.978 106.23 13.474C106.631 12.9607 106.832 12.34 106.832 11.612C106.832 10.884 106.631 10.268 106.23 9.764C105.829 9.26 105.283 9.008 104.592 9.008C103.901 9.008 103.351 9.26467 102.94 9.778C102.539 10.282 102.338 10.8933 102.338 11.612C102.338 12.34 102.539 12.9607 102.94 13.474ZM112.461 16.722V14.132C112.806 14.0667 113.077 13.8613 113.273 13.516C113.469 13.1613 113.628 12.5127 113.749 11.57L114.183 8.238H118.887V14.076H119.671V16.722H118.621V15H113.511V16.722H112.461ZM115.107 9.162L114.799 11.696C114.64 12.8813 114.314 13.6747 113.819 14.076H117.837V9.162H115.107ZM126.483 14.146C125.876 14.8273 125.069 15.168 124.061 15.168C123.053 15.168 122.241 14.8273 121.625 14.146C121.018 13.4647 120.715 12.62 120.715 11.612C120.715 10.604 121.018 9.764 121.625 9.092C122.241 8.41067 123.053 8.07 124.061 8.07C125.069 8.07 125.876 8.41067 126.483 9.092C127.099 9.764 127.407 10.604 127.407 11.612C127.407 12.62 127.099 13.4647 126.483 14.146ZM122.409 13.474C122.819 13.978 123.37 14.23 124.061 14.23C124.751 14.23 125.297 13.978 125.699 13.474C126.1 12.9607 126.301 12.34 126.301 11.612C126.301 10.884 126.1 10.268 125.699 9.764C125.297 9.26 124.751 9.008 124.061 9.008C123.37 9.008 122.819 9.26467 122.409 9.778C122.007 10.282 121.807 10.8933 121.807 11.612C121.807 12.34 122.007 12.9607 122.409 13.474ZM133.85 8.238V9.162H130.168V15H129.118V8.238H133.85ZM140.592 14.146C139.985 14.8273 139.178 15.168 138.17 15.168C137.162 15.168 136.35 14.8273 135.734 14.146C135.127 13.4647 134.824 12.62 134.824 11.612C134.824 10.604 135.127 9.764 135.734 9.092C136.35 8.41067 137.162 8.07 138.17 8.07C139.178 8.07 139.985 8.41067 140.592 9.092C141.208 9.764 141.516 10.604 141.516 11.612C141.516 12.62 141.208 13.4647 140.592 14.146ZM136.518 13.474C136.929 13.978 137.479 14.23 138.17 14.23C138.861 14.23 139.407 13.978 139.808 13.474C140.209 12.9607 140.41 12.34 140.41 11.612C140.41 10.884 140.209 10.268 139.808 9.764C139.407 9.26 138.861 9.008 138.17 9.008C137.479 9.008 136.929 9.26467 136.518 9.778C136.117 10.282 135.916 10.8933 135.916 11.612C135.916 12.34 136.117 12.9607 136.518 13.474ZM147.022 15H143.228V8.238H146.952C147.54 8.238 148.002 8.39667 148.338 8.714C148.683 9.03133 148.856 9.45133 148.856 9.974C148.856 10.3567 148.748 10.688 148.534 10.968C148.328 11.2387 148.072 11.4207 147.764 11.514C148.109 11.598 148.398 11.7987 148.632 12.116C148.874 12.4333 148.996 12.7833 148.996 13.166C148.996 13.7167 148.818 14.16 148.464 14.496C148.118 14.832 147.638 15 147.022 15ZM146.812 14.076C147.148 14.076 147.414 13.9827 147.61 13.796C147.806 13.6093 147.904 13.3573 147.904 13.04C147.904 12.7507 147.806 12.5033 147.61 12.298C147.414 12.0927 147.148 11.99 146.812 11.99H144.278V14.076H146.812ZM146.77 11.066C147.087 11.066 147.334 10.982 147.512 10.814C147.689 10.6367 147.778 10.408 147.778 10.128C147.778 9.82933 147.689 9.596 147.512 9.428C147.334 9.25067 147.087 9.162 146.77 9.162H144.278V11.066H146.77ZM156.356 14.146C155.749 14.8273 154.942 15.168 153.934 15.168C152.926 15.168 152.114 14.8273 151.498 14.146C150.891 13.4647 150.588 12.62 150.588 11.612C150.588 10.604 150.891 9.764 151.498 9.092C152.114 8.41067 152.926 8.07 153.934 8.07C154.942 8.07 155.749 8.41067 156.356 9.092C156.972 9.764 157.28 10.604 157.28 11.612C157.28 12.62 156.972 13.4647 156.356 14.146ZM152.282 13.474C152.692 13.978 153.243 14.23 153.934 14.23C154.624 14.23 155.17 13.978 155.572 13.474C155.973 12.9607 156.174 12.34 156.174 11.612C156.174 10.884 155.973 10.268 155.572 9.764C155.17 9.26 154.624 9.008 153.934 9.008C153.243 9.008 152.692 9.26467 152.282 9.778C151.88 10.282 151.68 10.8933 151.68 11.612C151.68 12.34 151.88 12.9607 152.282 13.474ZM162.323 15.168C161.371 15.168 160.611 14.7713 160.041 13.978V17.576H158.991V8.238H160.041V9.246C160.293 8.89133 160.62 8.60667 161.021 8.392C161.423 8.17733 161.857 8.07 162.323 8.07C163.219 8.07 163.943 8.392 164.493 9.036C165.053 9.67067 165.333 10.5293 165.333 11.612C165.333 12.6947 165.053 13.558 164.493 14.202C163.943 14.846 163.219 15.168 162.323 15.168ZM162.057 14.23C162.72 14.23 163.247 13.9873 163.639 13.502C164.031 13.0073 164.227 12.3773 164.227 11.612C164.227 10.8467 164.031 10.2213 163.639 9.736C163.247 9.25067 162.72 9.008 162.057 9.008C161.656 9.008 161.264 9.11533 160.881 9.33C160.508 9.53533 160.228 9.78733 160.041 10.086V13.138C160.228 13.446 160.508 13.7073 160.881 13.922C161.264 14.1273 161.656 14.23 162.057 14.23ZM170.055 15.168C169.047 15.168 168.221 14.8413 167.577 14.188C166.933 13.5253 166.611 12.6667 166.611 11.612C166.611 10.6227 166.928 9.78733 167.563 9.106C168.198 8.41533 168.991 8.07 169.943 8.07C170.942 8.07 171.73 8.41533 172.309 9.106C172.897 9.78733 173.191 10.6507 173.191 11.696V11.962H167.717C167.764 12.6247 168.006 13.18 168.445 13.628C168.884 14.076 169.453 14.3 170.153 14.3C170.993 14.3 171.688 14.0153 172.239 13.446L172.743 14.132C172.052 14.8227 171.156 15.168 170.055 15.168ZM172.155 11.192C172.146 10.6133 171.95 10.0953 171.567 9.638C171.184 9.17133 170.638 8.938 169.929 8.938C169.257 8.938 168.725 9.16667 168.333 9.624C167.95 10.0813 167.745 10.604 167.717 11.192H172.155ZM175.942 15H174.892V8.238H175.942V11.052H179.47V8.238H180.52V15H179.47V11.976H175.942V15ZM183.666 15H182.616V8.238H183.666V11.052H187.194V8.238H188.244V15H187.194V11.976H183.666V15ZM195.717 14.146C195.11 14.8273 194.303 15.168 193.295 15.168C192.287 15.168 191.475 14.8273 190.859 14.146C190.252 13.4647 189.949 12.62 189.949 11.612C189.949 10.604 190.252 9.764 190.859 9.092C191.475 8.41067 192.287 8.07 193.295 8.07C194.303 8.07 195.11 8.41067 195.717 9.092C196.333 9.764 196.641 10.604 196.641 11.612C196.641 12.62 196.333 13.4647 195.717 14.146ZM191.643 13.474C192.054 13.978 192.604 14.23 193.295 14.23C193.986 14.23 194.532 13.978 194.933 13.474C195.334 12.9607 195.535 12.34 195.535 11.612C195.535 10.884 195.334 10.268 194.933 9.764C194.532 9.26 193.986 9.008 193.295 9.008C192.604 9.008 192.054 9.26467 191.643 9.778C191.242 10.282 191.041 10.8933 191.041 11.612C191.041 12.34 191.242 12.9607 191.643 13.474ZM201.335 15.168C200.336 15.168 199.524 14.832 198.899 14.16C198.273 13.4787 197.961 12.6293 197.961 11.612C197.961 10.5947 198.273 9.75 198.899 9.078C199.524 8.406 200.336 8.07 201.335 8.07C202.38 8.07 203.206 8.462 203.813 9.246L203.113 9.89C202.683 9.302 202.109 9.008 201.391 9.008C200.681 9.008 200.112 9.25067 199.683 9.736C199.263 10.2213 199.053 10.8467 199.053 11.612C199.053 12.3773 199.263 13.0073 199.683 13.502C200.112 13.9873 200.681 14.23 201.391 14.23C202.1 14.23 202.674 13.936 203.113 13.348L203.813 13.992C203.206 14.776 202.38 15.168 201.335 15.168ZM207.566 15H206.516V9.162H204.556V8.238H209.54V9.162H207.566V15ZM211.925 15H210.917V8.238H211.967V13.404L215.509 8.238H216.545V15H215.495V9.736L211.925 15Z" fill="white"/>
<g clip-path="url(#clip0_1_1233)">
<path d="M9 0.625C9 0.45924 8.93415 0.300269 8.81694 0.183058C8.69973 0.065848 8.54076 0 8.375 0C8.20924 0 8.05027 0.065848 7.93306 0.183058C7.81585 0.300269 7.75 0.45924 7.75 0.625V1.25H6.5C5.83696 1.25 5.20107 1.51339 4.73223 1.98223C4.26339 2.45107 4 3.08696 4 3.75L4 5H24V3.75C24 3.08696 23.7366 2.45107 23.2678 1.98223C22.7989 1.51339 22.163 1.25 21.5 1.25H20.25V0.625C20.25 0.45924 20.1842 0.300269 20.0669 0.183058C19.9497 0.065848 19.7908 0 19.625 0C19.4592 0 19.3003 0.065848 19.1831 0.183058C19.0658 0.300269 19 0.45924 19 0.625V1.25H9V0.625ZM24 17.5V6.25H4V17.5C4 18.163 4.26339 18.7989 4.73223 19.2678C5.20107 19.7366 5.83696 20 6.5 20H21.5C22.163 20 22.7989 19.7366 23.2678 19.2678C23.7366 18.7989 24 18.163 24 17.5ZM15.875 8.75H17.125C17.2908 8.75 17.4497 8.81585 17.5669 8.93306C17.6842 9.05027 17.75 9.20924 17.75 9.375V10.625C17.75 10.7908 17.6842 10.9497 17.5669 11.0669C17.4497 11.1842 17.2908 11.25 17.125 11.25H15.875C15.7092 11.25 15.5503 11.1842 15.4331 11.0669C15.3158 10.9497 15.25 10.7908 15.25 10.625V9.375C15.25 9.20924 15.3158 9.05027 15.4331 8.93306C15.5503 8.81585 15.7092 8.75 15.875 8.75ZM19.625 8.75H20.875C21.0408 8.75 21.1997 8.81585 21.3169 8.93306C21.4342 9.05027 21.5 9.20924 21.5 9.375V10.625C21.5 10.7908 21.4342 10.9497 21.3169 11.0669C21.1997 11.1842 21.0408 11.25 20.875 11.25H19.625C19.4592 11.25 19.3003 11.1842 19.1831 11.0669C19.0658 10.9497 19 10.7908 19 10.625V9.375C19 9.20924 19.0658 9.05027 19.1831 8.93306C19.3003 8.81585 19.4592 8.75 19.625 8.75ZM6.5 13.125C6.5 12.9592 6.56585 12.8003 6.68306 12.6831C6.80027 12.5658 6.95924 12.5 7.125 12.5H8.375C8.54076 12.5 8.69973 12.5658 8.81694 12.6831C8.93415 12.8003 9 12.9592 9 13.125V14.375C9 14.5408 8.93415 14.6997 8.81694 14.8169C8.69973 14.9342 8.54076 15 8.375 15H7.125C6.95924 15 6.80027 14.9342 6.68306 14.8169C6.56585 14.6997 6.5 14.5408 6.5 14.375V13.125ZM10.875 12.5H12.125C12.2908 12.5 12.4497 12.5658 12.5669 12.6831C12.6842 12.8003 12.75 12.9592 12.75 13.125V14.375C12.75 14.5408 12.6842 14.6997 12.5669 14.8169C12.4497 14.9342 12.2908 15 12.125 15H10.875C10.7092 15 10.5503 14.9342 10.4331 14.8169C10.3158 14.6997 10.25 14.5408 10.25 14.375V13.125C10.25 12.9592 10.3158 12.8003 10.4331 12.6831C10.5503 12.5658 10.7092 12.5 10.875 12.5Z" fill="white"/>
</g>
</g>
<defs>
<filter id="filter0_d_1_1233" x="0" y="0" width="220.545" height="28" filterUnits="userSpaceOnUse" color-interpolation-filters="sRGB">
<feFlood flood-opacity="0" result="BackgroundImageFix"/>
<feColorMatrix in="SourceAlpha" type="matrix" values="0 0 0 0 0 0 0 0 0 0 0 0 0 0 0 0 0 0 127 0" result="hardAlpha"/>
<feOffset dy="4"/>
<feGaussianBlur stdDeviation="2"/>
<feComposite in2="hardAlpha" operator="out"/>
<feColorMatrix type="matrix" values="0 0 0 0 0 0 0 0 0 0 0 0 0 0 0 0 0 0 0.25 0"/>
<feBlend mode="normal" in2="BackgroundImageFix" result="effect1_dropShadow_1_1233"/>
<feBlend mode="normal" in="SourceGraphic" in2="effect1_dropShadow_1_1233" result="shape"/>
</filter>
<clipPath id="clip0_1_1233">
<rect width="20" height="20" fill="white" transform="translate(4)"/>
</clipPath>
</defs>
</svg>
